<?xml version="1.0" encoding="UTF-8" standalone="no"?><svg xmlns="http://www.w3.org/2000/svg" xmlns:xlink="http://www.w3.org/1999/xlink" contentStyleType="text/css" height="824px" preserveAspectRatio="none" style="width:802px;height:824px;background:#FFFFFF;" version="1.1" viewBox="0 0 802 824" width="802px" zoomAndPan="magnify"><defs/><g><!--class Pizzerie2Fratelli--><g id="elem_Pizzerie2Fratelli"><rect codeLine="1" fill="#F1F1F1" height="80.5938" id="Pizzerie2Fratelli" rx="2.5" ry="2.5" style="stroke:#181818;stroke-width:0.5;" width="147" x="260" y="720"/><ellipse cx="275" cy="736" fill="#ADD1B2" rx="11" ry="11" style="stroke:#181818;stroke-width:1.0;"/><path d="M277.3438,731.6719 C276.4063,731.2344 275.8125,731.0938 274.9375,731.0938 C272.3125,731.0938 270.3125,733.1719 270.3125,735.8906 L270.3125,737.0156 C270.3125,739.5938 272.4219,741.4844 275.3125,741.4844 C276.5313,741.4844 277.6875,741.1875 278.4375,740.6406 C279.0156,740.2344 279.3438,739.7813 279.3438,739.3906 C279.3438,738.9375 278.9531,738.5469 278.4844,738.5469 C278.2656,738.5469 278.0625,738.625 277.875,738.8125 C277.4219,739.2969 277.4219,739.2969 277.2344,739.3906 C276.8125,739.6563 276.125,739.7813 275.3594,739.7813 C273.3125,739.7813 272.0156,738.6875 272.0156,736.9844 L272.0156,735.8906 C272.0156,734.1094 273.2656,732.7969 275,732.7969 C275.5781,732.7969 276.1875,732.9531 276.6563,733.2031 C277.1406,733.4844 277.3125,733.7031 277.4063,734.1094 C277.4688,734.5156 277.5,734.6406 277.6406,734.7656 C277.7813,734.9063 278.0156,735.0156 278.2344,735.0156 C278.5,735.0156 278.7656,734.875 278.9375,734.6563 C279.0469,734.5 279.0781,734.3125 279.0781,733.8906 L279.0781,732.4688 C279.0781,732.0313 279.0625,731.9063 278.9688,731.75 C278.8125,731.4844 278.5313,731.3438 278.2344,731.3438 C277.9375,731.3438 277.7344,731.4375 277.5156,731.75 L277.3438,731.6719 Z " fill="#000000"/><text fill="#000000" font-family="sans-serif" font-size="14" lengthAdjust="spacing" textLength="115" x="289" y="740.8467">Pizzerie2Fratelli</text><line style="stroke:#181818;stroke-width:0.5;" x1="261" x2="406" y1="752" y2="752"/><ellipse cx="271" cy="765.6484" fill="none" rx="3" ry="3" style="stroke:#038048;stroke-width:1.0;"/><text fill="#000000" font-family="sans-serif" font-size="14" lengthAdjust="spacing" textLength="15" x="280" y="768.9951">ID</text><ellipse cx="271" cy="781.9453" fill="none" rx="3" ry="3" style="stroke:#038048;stroke-width:1.0;"/><text fill="#000000" font-family="sans-serif" font-size="14" lengthAdjust="spacing" textLength="39" x="280" y="785.292">p. iva</text><line style="stroke:#181818;stroke-width:0.5;" x1="261" x2="406" y1="792.5938" y2="792.5938"/></g><!--class Pizzeria--><g id="elem_Pizzeria"><rect codeLine="6" fill="#F1F1F1" height="80.5938" id="Pizzeria" rx="2.5" ry="2.5" style="stroke:#181818;stroke-width:0.5;" width="88" x="210.5" y="546"/><ellipse cx="225.5" cy="562" fill="#ADD1B2" rx="11" ry="11" style="stroke:#181818;stroke-width:1.0;"/><path d="M227.8438,557.6719 C226.9063,557.2344 226.3125,557.0938 225.4375,557.0938 C222.8125,557.0938 220.8125,559.1719 220.8125,561.8906 L220.8125,563.0156 C220.8125,565.5938 222.9219,567.4844 225.8125,567.4844 C227.0313,567.4844 228.1875,567.1875 228.9375,566.6406 C229.5156,566.2344 229.8438,565.7813 229.8438,565.3906 C229.8438,564.9375 229.4531,564.5469 228.9844,564.5469 C228.7656,564.5469 228.5625,564.625 228.375,564.8125 C227.9219,565.2969 227.9219,565.2969 227.7344,565.3906 C227.3125,565.6563 226.625,565.7813 225.8594,565.7813 C223.8125,565.7813 222.5156,564.6875 222.5156,562.9844 L222.5156,561.8906 C222.5156,560.1094 223.7656,558.7969 225.5,558.7969 C226.0781,558.7969 226.6875,558.9531 227.1563,559.2031 C227.6406,559.4844 227.8125,559.7031 227.9063,560.1094 C227.9688,560.5156 228,560.6406 228.1406,560.7656 C228.2813,560.9063 228.5156,561.0156 228.7344,561.0156 C229,561.0156 229.2656,560.875 229.4375,560.6563 C229.5469,560.5 229.5781,560.3125 229.5781,559.8906 L229.5781,558.4688 C229.5781,558.0313 229.5625,557.9063 229.4688,557.75 C229.3125,557.4844 229.0313,557.3438 228.7344,557.3438 C228.4375,557.3438 228.2344,557.4375 228.0156,557.75 L227.8438,557.6719 Z " fill="#000000"/><text fill="#000000" font-family="sans-serif" font-size="14" lengthAdjust="spacing" textLength="56" x="239.5" y="566.8467">Pizzeria</text><line style="stroke:#181818;stroke-width:0.5;" x1="211.5" x2="297.5" y1="578" y2="578"/><ellipse cx="221.5" cy="591.6484" fill="none" rx="3" ry="3" style="stroke:#038048;stroke-width:1.0;"/><text fill="#000000" font-family="sans-serif" font-size="14" lengthAdjust="spacing" textLength="15" x="230.5" y="594.9951">ID</text><ellipse cx="221.5" cy="607.9453" fill="none" rx="3" ry="3" style="stroke:#038048;stroke-width:1.0;"/><text fill="#000000" font-family="sans-serif" font-size="14" lengthAdjust="spacing" textLength="55" x="230.5" y="611.292">address</text><line style="stroke:#181818;stroke-width:0.5;" x1="211.5" x2="297.5" y1="618.5938" y2="618.5938"/></g><!--class Person--><g id="elem_Person"><rect codeLine="11" fill="#F1F1F1" height="80.5938" id="Person" rx="2.5" ry="2.5" style="stroke:#181818;stroke-width:0.5;" width="89" x="7" y="388"/><ellipse cx="25.6" cy="404" fill="#ADD1B2" rx="11" ry="11" style="stroke:#181818;stroke-width:1.0;"/><path d="M27.9438,399.6719 C27.0063,399.2344 26.4125,399.0938 25.5375,399.0938 C22.9125,399.0938 20.9125,401.1719 20.9125,403.8906 L20.9125,405.0156 C20.9125,407.5938 23.0219,409.4844 25.9125,409.4844 C27.1313,409.4844 28.2875,409.1875 29.0375,408.6406 C29.6156,408.2344 29.9438,407.7813 29.9438,407.3906 C29.9438,406.9375 29.5531,406.5469 29.0844,406.5469 C28.8656,406.5469 28.6625,406.625 28.475,406.8125 C28.0219,407.2969 28.0219,407.2969 27.8344,407.3906 C27.4125,407.6563 26.725,407.7813 25.9594,407.7813 C23.9125,407.7813 22.6156,406.6875 22.6156,404.9844 L22.6156,403.8906 C22.6156,402.1094 23.8656,400.7969 25.6,400.7969 C26.1781,400.7969 26.7875,400.9531 27.2563,401.2031 C27.7406,401.4844 27.9125,401.7031 28.0063,402.1094 C28.0688,402.5156 28.1,402.6406 28.2406,402.7656 C28.3813,402.9063 28.6156,403.0156 28.8344,403.0156 C29.1,403.0156 29.3656,402.875 29.5375,402.6563 C29.6469,402.5 29.6781,402.3125 29.6781,401.8906 L29.6781,400.4688 C29.6781,400.0313 29.6625,399.9063 29.5688,399.75 C29.4125,399.4844 29.1313,399.3438 28.8344,399.3438 C28.5375,399.3438 28.3344,399.4375 28.1156,399.75 L27.9438,399.6719 Z " fill="#000000"/><text fill="#000000" font-family="sans-serif" font-size="14" lengthAdjust="spacing" textLength="49" x="40.4" y="408.8467">Person</text><line style="stroke:#181818;stroke-width:0.5;" x1="8" x2="95" y1="420" y2="420"/><ellipse cx="18" cy="433.6484" fill="none" rx="3" ry="3" style="stroke:#038048;stroke-width:1.0;"/><text fill="#000000" font-family="sans-serif" font-size="14" lengthAdjust="spacing" textLength="41" x="27" y="436.9951">Name</text><ellipse cx="18" cy="449.9453" fill="none" rx="3" ry="3" style="stroke:#038048;stroke-width:1.0;"/><text fill="#000000" font-family="sans-serif" font-size="14" lengthAdjust="spacing" textLength="63" x="27" y="453.292">Surname</text><line style="stroke:#181818;stroke-width:0.5;" x1="8" x2="95" y1="460.5938" y2="460.5938"/></g><!--class PizzaChef--><g id="elem_PizzaChef"><rect codeLine="16" fill="#F1F1F1" height="113.1875" id="PizzaChef" rx="2.5" ry="2.5" style="stroke:#181818;stroke-width:0.5;" width="132" x="75.5" y="704"/><ellipse cx="103.55" cy="720" fill="#ADD1B2" rx="11" ry="11" style="stroke:#181818;stroke-width:1.0;"/><path d="M105.8938,715.6719 C104.9563,715.2344 104.3625,715.0938 103.4875,715.0938 C100.8625,715.0938 98.8625,717.1719 98.8625,719.8906 L98.8625,721.0156 C98.8625,723.5938 100.9719,725.4844 103.8625,725.4844 C105.0813,725.4844 106.2375,725.1875 106.9875,724.6406 C107.5656,724.2344 107.8938,723.7813 107.8938,723.3906 C107.8938,722.9375 107.5031,722.5469 107.0344,722.5469 C106.8156,722.5469 106.6125,722.625 106.425,722.8125 C105.9719,723.2969 105.9719,723.2969 105.7844,723.3906 C105.3625,723.6563 104.675,723.7813 103.9094,723.7813 C101.8625,723.7813 100.5656,722.6875 100.5656,720.9844 L100.5656,719.8906 C100.5656,718.1094 101.8156,716.7969 103.55,716.7969 C104.1281,716.7969 104.7375,716.9531 105.2063,717.2031 C105.6906,717.4844 105.8625,717.7031 105.9563,718.1094 C106.0188,718.5156 106.05,718.6406 106.1906,718.7656 C106.3313,718.9063 106.5656,719.0156 106.7844,719.0156 C107.05,719.0156 107.3156,718.875 107.4875,718.6563 C107.5969,718.5 107.6281,718.3125 107.6281,717.8906 L107.6281,716.4688 C107.6281,716.0313 107.6125,715.9063 107.5188,715.75 C107.3625,715.4844 107.0813,715.3438 106.7844,715.3438 C106.4875,715.3438 106.2844,715.4375 106.0656,715.75 L105.8938,715.6719 Z " fill="#000000"/><text fill="#000000" font-family="sans-serif" font-size="14" lengthAdjust="spacing" textLength="71" x="120.45" y="724.8467">PizzaChef</text><line style="stroke:#181818;stroke-width:0.5;" x1="76.5" x2="206.5" y1="736" y2="736"/><ellipse cx="86.5" cy="749.6484" fill="none" rx="3" ry="3" style="stroke:#038048;stroke-width:1.0;"/><text fill="#000000" font-family="sans-serif" font-size="14" lengthAdjust="spacing" textLength="66" x="95.5" y="752.9951">skill level</text><ellipse cx="86.5" cy="765.9453" fill="none" rx="3" ry="3" style="stroke:#038048;stroke-width:1.0;"/><text fill="#000000" font-family="sans-serif" font-size="14" lengthAdjust="spacing" textLength="76" x="95.5" y="769.292">certificate</text><ellipse cx="86.5" cy="782.2422" fill="none" rx="3" ry="3" style="stroke:#038048;stroke-width:1.0;"/><text fill="#000000" font-family="sans-serif" font-size="14" lengthAdjust="spacing" textLength="43" x="95.5" y="785.5889">Salary</text><ellipse cx="86.5" cy="798.5391" fill="none" rx="3" ry="3" style="stroke:#038048;stroke-width:1.0;"/><text fill="#000000" font-family="sans-serif" font-size="14" lengthAdjust="spacing" textLength="106" x="95.5" y="801.8857">phone number</text><line style="stroke:#181818;stroke-width:0.5;" x1="76.5" x2="206.5" y1="809.1875" y2="809.1875"/></g><!--class Cashier--><g id="elem_Cashier"><rect codeLine="23" fill="#F1F1F1" height="80.5938" id="Cashier" rx="2.5" ry="2.5" style="stroke:#181818;stroke-width:0.5;" width="132" x="131.5" y="388"/><ellipse cx="167.65" cy="404" fill="#ADD1B2" rx="11" ry="11" style="stroke:#181818;stroke-width:1.0;"/><path d="M169.9938,399.6719 C169.0563,399.2344 168.4625,399.0938 167.5875,399.0938 C164.9625,399.0938 162.9625,401.1719 162.9625,403.8906 L162.9625,405.0156 C162.9625,407.5938 165.0719,409.4844 167.9625,409.4844 C169.1813,409.4844 170.3375,409.1875 171.0875,408.6406 C171.6656,408.2344 171.9938,407.7813 171.9938,407.3906 C171.9938,406.9375 171.6031,406.5469 171.1344,406.5469 C170.9156,406.5469 170.7125,406.625 170.525,406.8125 C170.0719,407.2969 170.0719,407.2969 169.8844,407.3906 C169.4625,407.6563 168.775,407.7813 168.0094,407.7813 C165.9625,407.7813 164.6656,406.6875 164.6656,404.9844 L164.6656,403.8906 C164.6656,402.1094 165.9156,400.7969 167.65,400.7969 C168.2281,400.7969 168.8375,400.9531 169.3063,401.2031 C169.7906,401.4844 169.9625,401.7031 170.0563,402.1094 C170.1188,402.5156 170.15,402.6406 170.2906,402.7656 C170.4313,402.9063 170.6656,403.0156 170.8844,403.0156 C171.15,403.0156 171.4156,402.875 171.5875,402.6563 C171.6969,402.5 171.7281,402.3125 171.7281,401.8906 L171.7281,400.4688 C171.7281,400.0313 171.7125,399.9063 171.6188,399.75 C171.4625,399.4844 171.1813,399.3438 170.8844,399.3438 C170.5875,399.3438 170.3844,399.4375 170.1656,399.75 L169.9938,399.6719 Z " fill="#000000"/><text fill="#000000" font-family="sans-serif" font-size="14" lengthAdjust="spacing" textLength="53" x="186.35" y="408.8467">Cashier</text><line style="stroke:#181818;stroke-width:0.5;" x1="132.5" x2="262.5" y1="420" y2="420"/><ellipse cx="142.5" cy="433.6484" fill="none" rx="3" ry="3" style="stroke:#038048;stroke-width:1.0;"/><text fill="#000000" font-family="sans-serif" font-size="14" lengthAdjust="spacing" textLength="43" x="151.5" y="436.9951">Salary</text><ellipse cx="142.5" cy="449.9453" fill="none" rx="3" ry="3" style="stroke:#038048;stroke-width:1.0;"/><text fill="#000000" font-family="sans-serif" font-size="14" lengthAdjust="spacing" textLength="106" x="151.5" y="453.292">phone number</text><line style="stroke:#181818;stroke-width:0.5;" x1="132.5" x2="262.5" y1="460.5938" y2="460.5938"/></g><!--class DeliveryMan--><g id="elem_DeliveryMan"><rect codeLine="28" fill="#F1F1F1" height="80.5938" id="DeliveryMan" rx="2.5" ry="2.5" style="stroke:#181818;stroke-width:0.5;" width="132" x="298.5" y="388"/><ellipse cx="318.9" cy="404" fill="#ADD1B2" rx="11" ry="11" style="stroke:#181818;stroke-width:1.0;"/><path d="M321.2438,399.6719 C320.3063,399.2344 319.7125,399.0938 318.8375,399.0938 C316.2125,399.0938 314.2125,401.1719 314.2125,403.8906 L314.2125,405.0156 C314.2125,407.5938 316.3219,409.4844 319.2125,409.4844 C320.4313,409.4844 321.5875,409.1875 322.3375,408.6406 C322.9156,408.2344 323.2438,407.7813 323.2438,407.3906 C323.2438,406.9375 322.8531,406.5469 322.3844,406.5469 C322.1656,406.5469 321.9625,406.625 321.775,406.8125 C321.3219,407.2969 321.3219,407.2969 321.1344,407.3906 C320.7125,407.6563 320.025,407.7813 319.2594,407.7813 C317.2125,407.7813 315.9156,406.6875 315.9156,404.9844 L315.9156,403.8906 C315.9156,402.1094 317.1656,400.7969 318.9,400.7969 C319.4781,400.7969 320.0875,400.9531 320.5563,401.2031 C321.0406,401.4844 321.2125,401.7031 321.3063,402.1094 C321.3688,402.5156 321.4,402.6406 321.5406,402.7656 C321.6813,402.9063 321.9156,403.0156 322.1344,403.0156 C322.4,403.0156 322.6656,402.875 322.8375,402.6563 C322.9469,402.5 322.9781,402.3125 322.9781,401.8906 L322.9781,400.4688 C322.9781,400.0313 322.9625,399.9063 322.8688,399.75 C322.7125,399.4844 322.4313,399.3438 322.1344,399.3438 C321.8375,399.3438 321.6344,399.4375 321.4156,399.75 L321.2438,399.6719 Z " fill="#000000"/><text fill="#000000" font-family="sans-serif" font-size="14" lengthAdjust="spacing" textLength="88" x="334.1" y="408.8467">DeliveryMan</text><line style="stroke:#181818;stroke-width:0.5;" x1="299.5" x2="429.5" y1="420" y2="420"/><ellipse cx="309.5" cy="433.6484" fill="none" rx="3" ry="3" style="stroke:#038048;stroke-width:1.0;"/><text fill="#000000" font-family="sans-serif" font-size="14" lengthAdjust="spacing" textLength="43" x="318.5" y="436.9951">Salary</text><ellipse cx="309.5" cy="449.9453" fill="none" rx="3" ry="3" style="stroke:#038048;stroke-width:1.0;"/><text fill="#000000" font-family="sans-serif" font-size="14" lengthAdjust="spacing" textLength="106" x="318.5" y="453.292">phone number</text><line style="stroke:#181818;stroke-width:0.5;" x1="299.5" x2="429.5" y1="460.5938" y2="460.5938"/></g><!--class Customer--><g id="elem_Customer"><rect codeLine="33" fill="#F1F1F1" height="48" id="Customer" rx="2.5" ry="2.5" style="stroke:#181818;stroke-width:0.5;" width="102" x="662.5" y="404.5"/><ellipse cx="677.5" cy="420.5" fill="#ADD1B2" rx="11" ry="11" style="stroke:#181818;stroke-width:1.0;"/><path d="M679.8438,416.1719 C678.9063,415.7344 678.3125,415.5938 677.4375,415.5938 C674.8125,415.5938 672.8125,417.6719 672.8125,420.3906 L672.8125,421.5156 C672.8125,424.0938 674.9219,425.9844 677.8125,425.9844 C679.0313,425.9844 680.1875,425.6875 680.9375,425.1406 C681.5156,424.7344 681.8438,424.2813 681.8438,423.8906 C681.8438,423.4375 681.4531,423.0469 680.9844,423.0469 C680.7656,423.0469 680.5625,423.125 680.375,423.3125 C679.9219,423.7969 679.9219,423.7969 679.7344,423.8906 C679.3125,424.1563 678.625,424.2813 677.8594,424.2813 C675.8125,424.2813 674.5156,423.1875 674.5156,421.4844 L674.5156,420.3906 C674.5156,418.6094 675.7656,417.2969 677.5,417.2969 C678.0781,417.2969 678.6875,417.4531 679.1563,417.7031 C679.6406,417.9844 679.8125,418.2031 679.9063,418.6094 C679.9688,419.0156 680,419.1406 680.1406,419.2656 C680.2813,419.4063 680.5156,419.5156 680.7344,419.5156 C681,419.5156 681.2656,419.375 681.4375,419.1563 C681.5469,419 681.5781,418.8125 681.5781,418.3906 L681.5781,416.9688 C681.5781,416.5313 681.5625,416.4063 681.4688,416.25 C681.3125,415.9844 681.0313,415.8438 680.7344,415.8438 C680.4375,415.8438 680.2344,415.9375 680.0156,416.25 L679.8438,416.1719 Z " fill="#000000"/><text fill="#000000" font-family="sans-serif" font-size="14" lengthAdjust="spacing" textLength="70" x="691.5" y="425.3467">Customer</text><line style="stroke:#181818;stroke-width:0.5;" x1="663.5" x2="763.5" y1="436.5" y2="436.5"/><line style="stroke:#181818;stroke-width:0.5;" x1="663.5" x2="763.5" y1="444.5" y2="444.5"/></g><!--class Vehicle--><g id="elem_Vehicle"><rect codeLine="36" fill="#F1F1F1" height="80.5938" id="Vehicle" rx="2.5" ry="2.5" style="stroke:#181818;stroke-width:0.5;" width="85" x="340" y="546"/><ellipse cx="355" cy="562" fill="#ADD1B2" rx="11" ry="11" style="stroke:#181818;stroke-width:1.0;"/><path d="M357.3438,557.6719 C356.4063,557.2344 355.8125,557.0938 354.9375,557.0938 C352.3125,557.0938 350.3125,559.1719 350.3125,561.8906 L350.3125,563.0156 C350.3125,565.5938 352.4219,567.4844 355.3125,567.4844 C356.5313,567.4844 357.6875,567.1875 358.4375,566.6406 C359.0156,566.2344 359.3438,565.7813 359.3438,565.3906 C359.3438,564.9375 358.9531,564.5469 358.4844,564.5469 C358.2656,564.5469 358.0625,564.625 357.875,564.8125 C357.4219,565.2969 357.4219,565.2969 357.2344,565.3906 C356.8125,565.6563 356.125,565.7813 355.3594,565.7813 C353.3125,565.7813 352.0156,564.6875 352.0156,562.9844 L352.0156,561.8906 C352.0156,560.1094 353.2656,558.7969 355,558.7969 C355.5781,558.7969 356.1875,558.9531 356.6563,559.2031 C357.1406,559.4844 357.3125,559.7031 357.4063,560.1094 C357.4688,560.5156 357.5,560.6406 357.6406,560.7656 C357.7813,560.9063 358.0156,561.0156 358.2344,561.0156 C358.5,561.0156 358.7656,560.875 358.9375,560.6563 C359.0469,560.5 359.0781,560.3125 359.0781,559.8906 L359.0781,558.4688 C359.0781,558.0313 359.0625,557.9063 358.9688,557.75 C358.8125,557.4844 358.5313,557.3438 358.2344,557.3438 C357.9375,557.3438 357.7344,557.4375 357.5156,557.75 L357.3438,557.6719 Z " fill="#000000"/><text fill="#000000" font-family="sans-serif" font-size="14" lengthAdjust="spacing" textLength="53" x="369" y="566.8467">Vehicle</text><line style="stroke:#181818;stroke-width:0.5;" x1="341" x2="424" y1="578" y2="578"/><ellipse cx="351" cy="591.6484" fill="none" rx="3" ry="3" style="stroke:#038048;stroke-width:1.0;"/><text fill="#000000" font-family="sans-serif" font-size="14" lengthAdjust="spacing" textLength="15" x="360" y="594.9951">ID</text><ellipse cx="351" cy="607.9453" fill="none" rx="3" ry="3" style="stroke:#038048;stroke-width:1.0;"/><text fill="#000000" font-family="sans-serif" font-size="14" lengthAdjust="spacing" textLength="36" x="360" y="611.292">Type</text><line style="stroke:#181818;stroke-width:0.5;" x1="341" x2="424" y1="618.5938" y2="618.5938"/></g><!--class TicketOrder--><g id="elem_TicketOrder"><rect codeLine="41" fill="#F1F1F1" height="145.7813" id="TicketOrder" rx="2.5" ry="2.5" style="stroke:#181818;stroke-width:0.5;" width="317" x="478" y="165"/><ellipse cx="588.75" cy="181" fill="#ADD1B2" rx="11" ry="11" style="stroke:#181818;stroke-width:1.0;"/><path d="M591.0938,176.6719 C590.1563,176.2344 589.5625,176.0938 588.6875,176.0938 C586.0625,176.0938 584.0625,178.1719 584.0625,180.8906 L584.0625,182.0156 C584.0625,184.5938 586.1719,186.4844 589.0625,186.4844 C590.2813,186.4844 591.4375,186.1875 592.1875,185.6406 C592.7656,185.2344 593.0938,184.7813 593.0938,184.3906 C593.0938,183.9375 592.7031,183.5469 592.2344,183.5469 C592.0156,183.5469 591.8125,183.625 591.625,183.8125 C591.1719,184.2969 591.1719,184.2969 590.9844,184.3906 C590.5625,184.6563 589.875,184.7813 589.1094,184.7813 C587.0625,184.7813 585.7656,183.6875 585.7656,181.9844 L585.7656,180.8906 C585.7656,179.1094 587.0156,177.7969 588.75,177.7969 C589.3281,177.7969 589.9375,177.9531 590.4063,178.2031 C590.8906,178.4844 591.0625,178.7031 591.1563,179.1094 C591.2188,179.5156 591.25,179.6406 591.3906,179.7656 C591.5313,179.9063 591.7656,180.0156 591.9844,180.0156 C592.25,180.0156 592.5156,179.875 592.6875,179.6563 C592.7969,179.5 592.8281,179.3125 592.8281,178.8906 L592.8281,177.4688 C592.8281,177.0313 592.8125,176.9063 592.7188,176.75 C592.5625,176.4844 592.2813,176.3438 591.9844,176.3438 C591.6875,176.3438 591.4844,176.4375 591.2656,176.75 L591.0938,176.6719 Z " fill="#000000"/><text fill="#000000" font-family="sans-serif" font-size="14" lengthAdjust="spacing" textLength="87" x="609.25" y="185.8467">TicketOrder</text><line style="stroke:#181818;stroke-width:0.5;" x1="479" x2="794" y1="197" y2="197"/><ellipse cx="489" cy="210.6484" fill="none" rx="3" ry="3" style="stroke:#038048;stroke-width:1.0;"/><text fill="#000000" font-family="sans-serif" font-size="14" lengthAdjust="spacing" textLength="116" x="498" y="213.9951">delivery address</text><ellipse cx="489" cy="226.9453" fill="none" rx="3" ry="3" style="stroke:#038048;stroke-width:1.0;"/><text fill="#000000" font-family="sans-serif" font-size="14" lengthAdjust="spacing" textLength="116" x="498" y="230.292">additional notes</text><ellipse cx="489" cy="243.2422" fill="none" rx="3" ry="3" style="stroke:#038048;stroke-width:1.0;"/><text fill="#000000" font-family="sans-serif" font-size="14" lengthAdjust="spacing" textLength="34" x="498" y="246.5889">time</text><ellipse cx="489" cy="259.5391" fill="none" rx="3" ry="3" style="stroke:#038048;stroke-width:1.0;"/><text fill="#000000" font-family="sans-serif" font-size="14" lengthAdjust="spacing" textLength="291" x="498" y="262.8857">order type: just eat or on site/phone call</text><ellipse cx="489" cy="275.8359" fill="none" rx="3" ry="3" style="stroke:#038048;stroke-width:1.0;"/><text fill="#000000" font-family="sans-serif" font-size="14" lengthAdjust="spacing" textLength="187" x="498" y="279.1826">payment: payed or to pay</text><ellipse cx="489" cy="292.1328" fill="none" rx="3" ry="3" style="stroke:#038048;stroke-width:1.0;"/><text fill="#000000" font-family="sans-serif" font-size="14" lengthAdjust="spacing" textLength="266" x="498" y="295.4795">status: queue/cooking/shipping/done</text><line style="stroke:#181818;stroke-width:0.5;" x1="479" x2="794" y1="302.7813" y2="302.7813"/></g><!--class Product--><g id="elem_Product"><rect codeLine="50" fill="#F1F1F1" height="64.2969" id="Product" rx="2.5" ry="2.5" style="stroke:#181818;stroke-width:0.5;" width="162" x="465.5" y="396.5"/><ellipse cx="514.25" cy="412.5" fill="#ADD1B2" rx="11" ry="11" style="stroke:#181818;stroke-width:1.0;"/><path d="M516.5938,408.1719 C515.6563,407.7344 515.0625,407.5938 514.1875,407.5938 C511.5625,407.5938 509.5625,409.6719 509.5625,412.3906 L509.5625,413.5156 C509.5625,416.0938 511.6719,417.9844 514.5625,417.9844 C515.7813,417.9844 516.9375,417.6875 517.6875,417.1406 C518.2656,416.7344 518.5938,416.2813 518.5938,415.8906 C518.5938,415.4375 518.2031,415.0469 517.7344,415.0469 C517.5156,415.0469 517.3125,415.125 517.125,415.3125 C516.6719,415.7969 516.6719,415.7969 516.4844,415.8906 C516.0625,416.1563 515.375,416.2813 514.6094,416.2813 C512.5625,416.2813 511.2656,415.1875 511.2656,413.4844 L511.2656,412.3906 C511.2656,410.6094 512.5156,409.2969 514.25,409.2969 C514.8281,409.2969 515.4375,409.4531 515.9063,409.7031 C516.3906,409.9844 516.5625,410.2031 516.6563,410.6094 C516.7188,411.0156 516.75,411.1406 516.8906,411.2656 C517.0313,411.4063 517.2656,411.5156 517.4844,411.5156 C517.75,411.5156 518.0156,411.375 518.1875,411.1563 C518.2969,411 518.3281,410.8125 518.3281,410.3906 L518.3281,408.9688 C518.3281,408.5313 518.3125,408.4063 518.2188,408.25 C518.0625,407.9844 517.7813,407.8438 517.4844,407.8438 C517.1875,407.8438 516.9844,407.9375 516.7656,408.25 L516.5938,408.1719 Z " fill="#000000"/><text fill="#000000" font-family="sans-serif" font-size="14" lengthAdjust="spacing" textLength="56" x="534.75" y="417.3467">Product</text><line style="stroke:#181818;stroke-width:0.5;" x1="466.5" x2="626.5" y1="428.5" y2="428.5"/><ellipse cx="476.5" cy="442.1484" fill="none" rx="3" ry="3" style="stroke:#038048;stroke-width:1.0;"/><text fill="#000000" font-family="sans-serif" font-size="14" lengthAdjust="spacing" textLength="136" x="485.5" y="445.4951">type: food or drink</text><line style="stroke:#181818;stroke-width:0.5;" x1="466.5" x2="626.5" y1="452.7969" y2="452.7969"/></g><!--class Ingredient--><g id="elem_Ingredient"><rect codeLine="54" fill="#F1F1F1" height="80.5938" id="Ingredient" rx="2.5" ry="2.5" style="stroke:#181818;stroke-width:0.5;" width="107" x="336" y="197.5"/><ellipse cx="351" cy="213.5" fill="#ADD1B2" rx="11" ry="11" style="stroke:#181818;stroke-width:1.0;"/><path d="M353.3438,209.1719 C352.4063,208.7344 351.8125,208.5938 350.9375,208.5938 C348.3125,208.5938 346.3125,210.6719 346.3125,213.3906 L346.3125,214.5156 C346.3125,217.0938 348.4219,218.9844 351.3125,218.9844 C352.5313,218.9844 353.6875,218.6875 354.4375,218.1406 C355.0156,217.7344 355.3438,217.2813 355.3438,216.8906 C355.3438,216.4375 354.9531,216.0469 354.4844,216.0469 C354.2656,216.0469 354.0625,216.125 353.875,216.3125 C353.4219,216.7969 353.4219,216.7969 353.2344,216.8906 C352.8125,217.1563 352.125,217.2813 351.3594,217.2813 C349.3125,217.2813 348.0156,216.1875 348.0156,214.4844 L348.0156,213.3906 C348.0156,211.6094 349.2656,210.2969 351,210.2969 C351.5781,210.2969 352.1875,210.4531 352.6563,210.7031 C353.1406,210.9844 353.3125,211.2031 353.4063,211.6094 C353.4688,212.0156 353.5,212.1406 353.6406,212.2656 C353.7813,212.4063 354.0156,212.5156 354.2344,212.5156 C354.5,212.5156 354.7656,212.375 354.9375,212.1563 C355.0469,212 355.0781,211.8125 355.0781,211.3906 L355.0781,209.9688 C355.0781,209.5313 355.0625,209.4063 354.9688,209.25 C354.8125,208.9844 354.5313,208.8438 354.2344,208.8438 C353.9375,208.8438 353.7344,208.9375 353.5156,209.25 L353.3438,209.1719 Z " fill="#000000"/><text fill="#000000" font-family="sans-serif" font-size="14" lengthAdjust="spacing" textLength="75" x="365" y="218.3467">Ingredient</text><line style="stroke:#181818;stroke-width:0.5;" x1="337" x2="442" y1="229.5" y2="229.5"/><ellipse cx="347" cy="243.1484" fill="none" rx="3" ry="3" style="stroke:#038048;stroke-width:1.0;"/><text fill="#000000" font-family="sans-serif" font-size="14" lengthAdjust="spacing" textLength="15" x="356" y="246.4951">ID</text><ellipse cx="347" cy="259.4453" fill="none" rx="3" ry="3" style="stroke:#038048;stroke-width:1.0;"/><text fill="#000000" font-family="sans-serif" font-size="14" lengthAdjust="spacing" textLength="41" x="356" y="262.792">Name</text><line style="stroke:#181818;stroke-width:0.5;" x1="337" x2="442" y1="270.0938" y2="270.0938"/></g><!--class Menu--><g id="elem_Menu"><rect codeLine="59" fill="#F1F1F1" height="48" id="Menu" rx="2.5" ry="2.5" style="stroke:#181818;stroke-width:0.5;" width="70" x="450.5" y="736.5"/><ellipse cx="465.5" cy="752.5" fill="#ADD1B2" rx="11" ry="11" style="stroke:#181818;stroke-width:1.0;"/><path d="M467.8438,748.1719 C466.9063,747.7344 466.3125,747.5938 465.4375,747.5938 C462.8125,747.5938 460.8125,749.6719 460.8125,752.3906 L460.8125,753.5156 C460.8125,756.0938 462.9219,757.9844 465.8125,757.9844 C467.0313,757.9844 468.1875,757.6875 468.9375,757.1406 C469.5156,756.7344 469.8438,756.2813 469.8438,755.8906 C469.8438,755.4375 469.4531,755.0469 468.9844,755.0469 C468.7656,755.0469 468.5625,755.125 468.375,755.3125 C467.9219,755.7969 467.9219,755.7969 467.7344,755.8906 C467.3125,756.1563 466.625,756.2813 465.8594,756.2813 C463.8125,756.2813 462.5156,755.1875 462.5156,753.4844 L462.5156,752.3906 C462.5156,750.6094 463.7656,749.2969 465.5,749.2969 C466.0781,749.2969 466.6875,749.4531 467.1563,749.7031 C467.6406,749.9844 467.8125,750.2031 467.9063,750.6094 C467.9688,751.0156 468,751.1406 468.1406,751.2656 C468.2813,751.4063 468.5156,751.5156 468.7344,751.5156 C469,751.5156 469.2656,751.375 469.4375,751.1563 C469.5469,751 469.5781,750.8125 469.5781,750.3906 L469.5781,748.9688 C469.5781,748.5313 469.5625,748.4063 469.4688,748.25 C469.3125,747.9844 469.0313,747.8438 468.7344,747.8438 C468.4375,747.8438 468.2344,747.9375 468.0156,748.25 L467.8438,748.1719 Z " fill="#000000"/><text fill="#000000" font-family="sans-serif" font-size="14" lengthAdjust="spacing" textLength="38" x="479.5" y="757.3467">Menu</text><line style="stroke:#181818;stroke-width:0.5;" x1="451.5" x2="519.5" y1="768.5" y2="768.5"/><line style="stroke:#181818;stroke-width:0.5;" x1="451.5" x2="519.5" y1="776.5" y2="776.5"/></g><!--class Review--><g id="elem_Review"><rect codeLine="61" fill="#F1F1F1" height="96.8906" id="Review" rx="2.5" ry="2.5" style="stroke:#181818;stroke-width:0.5;" width="153" x="560" y="7"/><ellipse cx="606.75" cy="23" fill="#ADD1B2" rx="11" ry="11" style="stroke:#181818;stroke-width:1.0;"/><path d="M609.0938,18.6719 C608.1563,18.2344 607.5625,18.0938 606.6875,18.0938 C604.0625,18.0938 602.0625,20.1719 602.0625,22.8906 L602.0625,24.0156 C602.0625,26.5938 604.1719,28.4844 607.0625,28.4844 C608.2813,28.4844 609.4375,28.1875 610.1875,27.6406 C610.7656,27.2344 611.0938,26.7813 611.0938,26.3906 C611.0938,25.9375 610.7031,25.5469 610.2344,25.5469 C610.0156,25.5469 609.8125,25.625 609.625,25.8125 C609.1719,26.2969 609.1719,26.2969 608.9844,26.3906 C608.5625,26.6563 607.875,26.7813 607.1094,26.7813 C605.0625,26.7813 603.7656,25.6875 603.7656,23.9844 L603.7656,22.8906 C603.7656,21.1094 605.0156,19.7969 606.75,19.7969 C607.3281,19.7969 607.9375,19.9531 608.4063,20.2031 C608.8906,20.4844 609.0625,20.7031 609.1563,21.1094 C609.2188,21.5156 609.25,21.6406 609.3906,21.7656 C609.5313,21.9063 609.7656,22.0156 609.9844,22.0156 C610.25,22.0156 610.5156,21.875 610.6875,21.6563 C610.7969,21.5 610.8281,21.3125 610.8281,20.8906 L610.8281,19.4688 C610.8281,19.0313 610.8125,18.9063 610.7188,18.75 C610.5625,18.4844 610.2813,18.3438 609.9844,18.3438 C609.6875,18.3438 609.4844,18.4375 609.2656,18.75 L609.0938,18.6719 Z " fill="#000000"/><text fill="#000000" font-family="sans-serif" font-size="14" lengthAdjust="spacing" textLength="51" x="627.25" y="27.8467">Review</text><line style="stroke:#181818;stroke-width:0.5;" x1="561" x2="712" y1="39" y2="39"/><ellipse cx="571" cy="52.6484" fill="none" rx="3" ry="3" style="stroke:#038048;stroke-width:1.0;"/><text fill="#000000" font-family="sans-serif" font-size="14" lengthAdjust="spacing" textLength="15" x="580" y="55.9951">ID</text><ellipse cx="571" cy="68.9453" fill="none" rx="3" ry="3" style="stroke:#038048;stroke-width:1.0;"/><text fill="#000000" font-family="sans-serif" font-size="14" lengthAdjust="spacing" textLength="127" x="580" y="72.292">Stars: from 1 to 5</text><ellipse cx="571" cy="85.2422" fill="none" rx="3" ry="3" style="stroke:#038048;stroke-width:1.0;"/><text fill="#000000" font-family="sans-serif" font-size="14" lengthAdjust="spacing" textLength="84" x="580" y="88.5889">Description</text><line style="stroke:#181818;stroke-width:0.5;" x1="561" x2="712" y1="95.8906" y2="95.8906"/></g><!--link Pizzeria to Pizzerie2Fratelli--><g id="link_Pizzeria_Pizzerie2Fratelli"><path codeLine="67" d="M292.362,627.163 C299.608,636.402 306.486,646.598 311.5,657 C320.904,676.51 326.319,700.03 329.422,719.6163 " fill="none" id="Pizzeria-Pizzerie2Fratelli" style="stroke:#181818;stroke-width:1.0;"/><text fill="#000000" font-family="sans-serif" font-size="13" lengthAdjust="spacing" textLength="7" x="290.6237" y="646.6461">*</text></g><!--reverse link Person to PizzaChef--><g id="link_Person_PizzaChef"><path codeLine="68" d="M67.6243,488.623 C84.2696,549.655 110.04,644.148 126.327,703.866 " fill="none" id="Person-backto-PizzaChef" style="stroke:#181818;stroke-width:1.0;"/><polygon fill="none" points="60.8652,490.443,62.3561,469.306,74.3719,486.759,60.8652,490.443" style="stroke:#181818;stroke-width:1.0;"/></g><!--reverse link Person to Cashier--><g id="link_Person_Cashier"><path codeLine="69" d="M116.341,428.5 C121.381,428.5 126.422,428.5 131.463,428.5 " fill="none" id="Person-backto-Cashier" style="stroke:#181818;stroke-width:1.0;"/><polygon fill="none" points="116.27,435.5,96.2695,428.5,116.269,421.5,116.27,435.5" style="stroke:#181818;stroke-width:1.0;"/></g><!--reverse link Person to DeliveryMan--><g id="link_Person_DeliveryMan"><path codeLine="70" d="M95.3534,373.234 C105.9067,363.561 117.947,354.883 131,349.5 C185.236,327.135 207.512,330.451 263,349.5 C285.81,357.331 307.439,372.614 324.823,387.669 " fill="none" id="Person-backto-DeliveryMan" style="stroke:#181818;stroke-width:1.0;"/><polygon fill="none" points="100.0151,378.478,81.0109,387.85,90.0224,368.672,100.0151,378.478" style="stroke:#181818;stroke-width:1.0;"/></g><!--reverse link Person to Customer--><g id="link_Person_Customer"><path codeLine="71" d="M95.3534,373.234 C105.9067,363.561 117.947,354.883 131,349.5 C233.104,307.396 525.148,309.258 628,349.5 C656.043,360.472 680.406,385.434 695.873,404.384 " fill="none" id="Person-backto-Customer" style="stroke:#181818;stroke-width:1.0;"/><polygon fill="none" points="100.0151,378.478,81.0109,387.85,90.0224,368.672,100.0151,378.478" style="stroke:#181818;stroke-width:1.0;"/></g><!--link DeliveryMan to Pizzeria--><g id="link_DeliveryMan_Pizzeria"><path codeLine="72" d="M327.952,469.248 C319.875,478.724 311.613,488.997 304.5,499 C294.046,513.701 283.834,530.734 275.392,545.777 " fill="none" id="DeliveryMan-Pizzeria" style="stroke:#181818;stroke-width:1.0;"/><polygon fill="#000000" points="306.6693,511.688,314.2127,505.8958,309.3675,502.5682,306.6693,511.688" style="stroke:#000000;stroke-width:1.0;"/><text fill="#000000" font-family="sans-serif" font-size="13" lengthAdjust="spacing" textLength="46" x="318.5" y="512.0669">work in</text><text fill="#000000" font-family="sans-serif" font-size="13" lengthAdjust="spacing" textLength="10" x="311.59" y="488.7441">+</text></g><!--link Cashier to Pizzeria--><g id="link_Cashier_Pizzeria"><path codeLine="73" d="M189.821,469.28 C188.526,484.331 189.052,501.353 194.5,516 C198.445,526.608 204.818,536.677 211.967,545.691 " fill="none" id="Cashier-Pizzeria" style="stroke:#181818;stroke-width:1.0;"/><polygon fill="#000000" points="200.8919,512.3688,201.1967,502.8631,195.5512,504.4993,200.8919,512.3688" style="stroke:#000000;stroke-width:1.0;"/><text fill="#000000" font-family="sans-serif" font-size="13" lengthAdjust="spacing" textLength="46" x="208.5" y="512.0669">work in</text><text fill="#000000" font-family="sans-serif" font-size="13" lengthAdjust="spacing" textLength="10" x="177.8795" y="488.781">+</text></g><!--link DeliveryMan to Vehicle--><g id="link_DeliveryMan_Vehicle"><path codeLine="74" d="M369.089,469.269 C371.797,492.74 375.213,522.346 377.92,545.804 " fill="none" id="DeliveryMan-Vehicle" style="stroke:#181818;stroke-width:1.0;"/><text fill="#000000" font-family="sans-serif" font-size="13" lengthAdjust="spacing" textLength="10" x="366.3333" y="534.9331">+</text></g><!--link Pizzeria to PizzaChef--><g id="link_Pizzeria_PizzaChef"><path codeLine="75" d="M236.46,627.217 C229.074,642.26 220.026,659.293 210.5,674 C204.071,683.926 196.708,694.059 189.242,703.716 " fill="none" id="Pizzeria-PizzaChef" style="stroke:#181818;stroke-width:1.0;"/><polygon fill="#000000" points="222.8738,669.8212,230.1255,663.6679,225.1237,660.5806,222.8738,669.8212" style="stroke:#000000;stroke-width:1.0;"/><text fill="#000000" font-family="sans-serif" font-size="13" lengthAdjust="spacing" textLength="46" x="234.5" y="670.0669">work in</text><text fill="#000000" font-family="sans-serif" font-size="13" lengthAdjust="spacing" textLength="10" x="184.4512" y="692.9449">+</text></g><!--link Pizzeria to PizzaChef--><g id="link_Pizzeria_PizzaChef"><path codeLine="76" d="M210.296,600.53 C183.215,611.054 150.732,628.842 134.5,657 C126.438,670.985 124.951,687.892 126.398,703.907 " fill="none" id="Pizzeria-PizzaChef-1" style="stroke:#181818;stroke-width:1.0;"/><polygon fill="#000000" points="142.6508,661.6841,134.669,666.8553,139.2329,670.5593,142.6508,661.6841" style="stroke:#000000;stroke-width:1.0;"/><text fill="#000000" font-family="sans-serif" font-size="13" lengthAdjust="spacing" textLength="53" x="148.5" y="670.0669">manage</text><text fill="#000000" font-family="sans-serif" font-size="13" lengthAdjust="spacing" textLength="7" x="195.395" y="598.7231">*</text></g><!--link Pizzeria to Menu--><g id="link_Pizzeria_Menu"><path codeLine="77" d="M298.641,615.355 C333.666,638.02 383.399,671.47 424.5,704 C437.186,714.041 450.558,726.0309 461.539,736.2932 " fill="none" id="Pizzeria-Menu" style="stroke:#181818;stroke-width:1.0;"/></g><!--link Product to Menu--><g id="link_Product_Menu"><path codeLine="78" d="M540.761,460.546 C528.601,526.329 500.48,678.461 489.758,736.4651 " fill="none" id="Product-Menu" style="stroke:#181818;stroke-width:1.0;"/><text fill="#000000" font-family="sans-serif" font-size="13" lengthAdjust="spacing" textLength="7" x="531.8555" y="480.7523">*</text><text fill="#000000" font-family="sans-serif" font-size="13" lengthAdjust="spacing" textLength="7" x="482.9522" y="725.4682">*</text></g><!--link TicketOrder to Cashier--><g id="link_TicketOrder_Cashier"><path codeLine="79" d="M477.601,304.638 C401.092,336.419 317.966,371.256 280.5,388 C274.964,390.474 269.242,393.084 263.512,395.735 " fill="none" id="TicketOrder-Cashier" style="stroke:#181818;stroke-width:1.0;"/><polygon fill="#000000" points="393.1008,347.6087,383.6272,348.4459,385.9286,353.8545,393.1008,347.6087" style="stroke:#000000;stroke-width:1.0;"/><text fill="#000000" font-family="sans-serif" font-size="13" lengthAdjust="spacing" textLength="32" x="397.5" y="354.0669">write</text><text fill="#000000" font-family="sans-serif" font-size="13" lengthAdjust="spacing" textLength="7" x="463.2423" y="304.3926">*</text></g><!--link TicketOrder to Customer--><g id="link_TicketOrder_Customer"><path codeLine="80" d="M665.94,311.071 C679.441,344.122 694.518,381.031 704.005,404.256 " fill="none" id="TicketOrder-Customer" style="stroke:#181818;stroke-width:1.0;"/><text fill="#000000" font-family="sans-serif" font-size="13" lengthAdjust="spacing" textLength="7" x="661.4124" y="330.8341">*</text></g><!--link TicketOrder to Product--><g id="link_TicketOrder_Product"><path codeLine="81" d="M602.09,311.071 C587.996,340.588 572.434,373.182 561.369,396.358 " fill="none" id="TicketOrder-Product" style="stroke:#181818;stroke-width:1.0;"/><polygon fill="#000000" points="588.3457,354.0785,594.895,347.1823,589.5908,344.6498,588.3457,354.0785" style="stroke:#000000;stroke-width:1.0;"/><text fill="#000000" font-family="sans-serif" font-size="13" lengthAdjust="spacing" textLength="23" x="599.5" y="354.0669">has</text><text fill="#000000" font-family="sans-serif" font-size="13" lengthAdjust="spacing" textLength="7" x="591.4767" y="330.8341">*</text><text fill="#000000" font-family="sans-serif" font-size="13" lengthAdjust="spacing" textLength="10" x="553.4045" y="385.2318">+</text></g><!--link Ingredient to Product--><g id="link_Ingredient_Product"><path codeLine="82" d="M422.412,278.516 C451.635,313.602 493.757,364.175 520.628,396.437 " fill="none" id="Ingredient-Product" style="stroke:#181818;stroke-width:1.0;"/><text fill="#000000" font-family="sans-serif" font-size="13" lengthAdjust="spacing" textLength="7" x="420.0995" y="298.2784">*</text><text fill="#000000" font-family="sans-serif" font-size="13" lengthAdjust="spacing" textLength="7" x="507.57" y="385.3271">*</text></g><!--link Review to TicketOrder--><g id="link_Review_TicketOrder"><path codeLine="83" d="M636.5,104.397 C636.5,122.883 636.5,144.435 636.5,164.724 " fill="none" id="Review-TicketOrder" style="stroke:#181818;stroke-width:1.0;"/><text fill="#000000" font-family="sans-serif" font-size="13" lengthAdjust="spacing" textLength="24" x="610.8875" y="124.0585">0..1</text></g><!--SRC=[ZLD1Rjim4Bpp5GiV6zXE2lGY1BdO2913qg89UjzAQsihYbH9oeRJ-kybASgY0AFjYQlbS7Ou79KIhOKl_FvEXkdZeq57KZBy4W0tyBIDIxS2Fg0uWn1bZiSv3AlAaDy5SRu0oLYj4km5Muh5QszKgCyv7svgsYMaRLXAa7GW6RzBCevtN7fn0m5ADAT1MwqLWUhRxsGcmWtQciaakd_2joJvGERqZEf_ZsnwwtGRHrnwtwZcKjBSbRTJbztqZSk6t6TJNSHLQVPetsWbEzOA9IZjQ6WwJlxfUDnvuW9-U1r0w7mJlDEM7Qq7nINAmRqEJoqfLuI2gW1qEjI3rGvTRmlusLDFwrBhXjL-xTthkb1KdYbx9wEhldH9-I1WftNah0ohPe8-gRsXYltSkHqliuT_9jLVKlML3ap7EVpLeV7gTaQtS1TqVuhjBTdIS1Si2cINF2u-B62vl99daP9u_tivfIrlfiJahJmLCsXwUf435ZVvP8G2Zjeqm0eUn9Z6ls5oBey9q1IdwNQfF_qjES4r3qRKFRIeS3-d2jwBzABfJ5XYEuzfsXil4TYEniViAcYqvifUb9u2LC03r6X5bf9CGaA958Z5xMfr5pSprZy0]--></g></svg>