<?xml version="1.0" encoding="UTF-8" standalone="no"?><svg xmlns="http://www.w3.org/2000/svg" xmlns:xlink="http://www.w3.org/1999/xlink" contentStyleType="text/css" height="175px" preserveAspectRatio="none" style="width:317px;height:175px;background:#FFFFFF;" version="1.1" viewBox="0 0 317 175" width="317px" zoomAndPan="magnify"><defs/><g><!--entity Just_eat_server--><g id="elem_Just_eat_server"><polygon fill="#F1F1F1" points="16,16,26,6,165,6,165,42.2969,155,52.2969,16,52.2969,16,16" style="stroke:#181818;stroke-width:0.5;"/><line style="stroke:#181818;stroke-width:0.5;" x1="155" x2="165" y1="16" y2="6"/><line style="stroke:#181818;stroke-width:0.5;" x1="16" x2="155" y1="16" y2="16"/><line style="stroke:#181818;stroke-width:0.5;" x1="155" x2="155" y1="16" y2="52.2969"/><text fill="#000000" font-family="sans-serif" font-size="14" lengthAdjust="spacing" textLength="109" x="31" y="38.9951">Just_eat_server</text></g><!--entity Chef_device--><g id="elem_Chef_device"><polygon fill="#F1F1F1" points="26.5,122,36.5,112,154.5,112,154.5,148.2969,144.5,158.2969,26.5,158.2969,26.5,122" style="stroke:#181818;stroke-width:0.5;"/><line style="stroke:#181818;stroke-width:0.5;" x1="144.5" x2="154.5" y1="122" y2="112"/><line style="stroke:#181818;stroke-width:0.5;" x1="26.5" x2="144.5" y1="122" y2="122"/><line style="stroke:#181818;stroke-width:0.5;" x1="144.5" x2="144.5" y1="122" y2="158.2969"/><text fill="#000000" font-family="sans-serif" font-size="14" lengthAdjust="spacing" textLength="88" x="41.5" y="144.9951">Chef_device</text></g><!--entity JustEat_app--><g id="elem_JustEat_app"><rect fill="#F1F1F1" height="39.2969" rx="2.5" ry="2.5" style="stroke:#181818;stroke-width:0.5;" width="115" x="190" y="115.5"/><polygon fill="#F1F1F1" points="288,120.5,288,134.5,300,134.5,300,126.5,294,120.5,288,120.5" style="stroke:#181818;stroke-width:0.5;"/><line style="stroke:#181818;stroke-width:0.5;" x1="294" x2="294" y1="120.5" y2="126.5"/><line style="stroke:#181818;stroke-width:0.5;" x1="300" x2="294" y1="126.5" y2="126.5"/><text fill="#000000" font-family="sans-serif" font-size="14" lengthAdjust="spacing" textLength="85" x="200" y="141.4951">JustEat_app</text></g><!--link Just_eat_server to Chef_device--><g id="link_Just_eat_server_Chef_device"><path d="M90.5,52.056 C90.5,69.7049 90.5,94.3353 90.5,111.9761 " fill="none" id="Just_eat_server-Chef_device" style="stroke:#181818;stroke-width:1.0;"/></g><!--link Chef_device to JustEat_app--><g id="link_Chef_device_JustEat_app"><path d="M154.588,135 C166.323,135 178.058,135 189.793,135 " fill="none" id="Chef_device-JustEat_app" style="stroke:#181818;stroke-width:1.0;"/></g><!--SRC=[oyjFILNmAYqkYKzDB8alJYqgIotYoWC9EcUafiMdf9Pb9gToSIKMbMIc9IQNW9Mw0bKc5XHmSQ7fKz3LHT65f5P1DmT53W00]--></g></svg>