<?xml version="1.0" encoding="UTF-8" standalone="no"?><svg xmlns="http://www.w3.org/2000/svg" xmlns:xlink="http://www.w3.org/1999/xlink" contentStyleType="text/css" height="475px" preserveAspectRatio="none" style="width:331px;height:475px;background:#FFFFFF;" version="1.1" viewBox="0 0 331 475" width="331px" zoomAndPan="magnify"><defs/><g><!--class TicketOrder--><g id="elem_TicketOrder"><rect codeLine="1" fill="#F1F1F1" height="162.0781" id="TicketOrder" rx="2.5" ry="2.5" style="stroke:#181818;stroke-width:0.5;" width="317" x="7" y="306"/><ellipse cx="117.75" cy="322" fill="#ADD1B2" rx="11" ry="11" style="stroke:#181818;stroke-width:1.0;"/><path d="M120.0938,317.6719 C119.1563,317.2344 118.5625,317.0938 117.6875,317.0938 C115.0625,317.0938 113.0625,319.1719 113.0625,321.8906 L113.0625,323.0156 C113.0625,325.5938 115.1719,327.4844 118.0625,327.4844 C119.2813,327.4844 120.4375,327.1875 121.1875,326.6406 C121.7656,326.2344 122.0938,325.7813 122.0938,325.3906 C122.0938,324.9375 121.7031,324.5469 121.2344,324.5469 C121.0156,324.5469 120.8125,324.625 120.625,324.8125 C120.1719,325.2969 120.1719,325.2969 119.9844,325.3906 C119.5625,325.6563 118.875,325.7813 118.1094,325.7813 C116.0625,325.7813 114.7656,324.6875 114.7656,322.9844 L114.7656,321.8906 C114.7656,320.1094 116.0156,318.7969 117.75,318.7969 C118.3281,318.7969 118.9375,318.9531 119.4063,319.2031 C119.8906,319.4844 120.0625,319.7031 120.1563,320.1094 C120.2188,320.5156 120.25,320.6406 120.3906,320.7656 C120.5313,320.9063 120.7656,321.0156 120.9844,321.0156 C121.25,321.0156 121.5156,320.875 121.6875,320.6563 C121.7969,320.5 121.8281,320.3125 121.8281,319.8906 L121.8281,318.4688 C121.8281,318.0313 121.8125,317.9063 121.7188,317.75 C121.5625,317.4844 121.2813,317.3438 120.9844,317.3438 C120.6875,317.3438 120.4844,317.4375 120.2656,317.75 L120.0938,317.6719 Z " fill="#000000"/><text fill="#000000" font-family="sans-serif" font-size="14" lengthAdjust="spacing" textLength="87" x="138.25" y="326.8467">TicketOrder</text><line style="stroke:#181818;stroke-width:0.5;" x1="8" x2="323" y1="338" y2="338"/><ellipse cx="18" cy="351.6484" fill="none" rx="3" ry="3" style="stroke:#038048;stroke-width:1.0;"/><text fill="#000000" font-family="sans-serif" font-size="14" lengthAdjust="spacing" textLength="116" x="27" y="354.9951">delivery address</text><ellipse cx="18" cy="367.9453" fill="none" rx="3" ry="3" style="stroke:#038048;stroke-width:1.0;"/><text fill="#000000" font-family="sans-serif" font-size="14" lengthAdjust="spacing" textLength="116" x="27" y="371.292">additional notes</text><ellipse cx="18" cy="384.2422" fill="none" rx="3" ry="3" style="stroke:#038048;stroke-width:1.0;"/><text fill="#000000" font-family="sans-serif" font-size="14" lengthAdjust="spacing" textLength="34" x="27" y="387.5889">time</text><ellipse cx="18" cy="400.5391" fill="none" rx="3" ry="3" style="stroke:#038048;stroke-width:1.0;"/><text fill="#000000" font-family="sans-serif" font-size="14" lengthAdjust="spacing" textLength="291" x="27" y="403.8857">order type: just eat or on site/phone call</text><ellipse cx="18" cy="416.8359" fill="none" rx="3" ry="3" style="stroke:#038048;stroke-width:1.0;"/><text fill="#000000" font-family="sans-serif" font-size="14" lengthAdjust="spacing" textLength="187" x="27" y="420.1826">payment: payed or to pay</text><ellipse cx="18" cy="433.1328" fill="none" rx="3" ry="3" style="stroke:#038048;stroke-width:1.0;"/><text fill="#000000" font-family="sans-serif" font-size="14" lengthAdjust="spacing" textLength="266" x="27" y="436.4795">status: queue/cooking/shipping/done</text><ellipse cx="18" cy="449.4297" fill="none" rx="3" ry="3" style="stroke:#038048;stroke-width:1.0;"/><text fill="#000000" font-family="sans-serif" font-size="14" lengthAdjust="spacing" textLength="128" x="27" y="452.7764">customer number</text><line style="stroke:#181818;stroke-width:0.5;" x1="8" x2="323" y1="460.0781" y2="460.0781"/></g><!--class Product--><g id="elem_Product"><rect codeLine="11" fill="#F1F1F1" height="64.2969" id="Product" rx="2.5" ry="2.5" style="stroke:#181818;stroke-width:0.5;" width="162" x="84.5" y="165"/><ellipse cx="133.25" cy="181" fill="#ADD1B2" rx="11" ry="11" style="stroke:#181818;stroke-width:1.0;"/><path d="M135.5938,176.6719 C134.6563,176.2344 134.0625,176.0938 133.1875,176.0938 C130.5625,176.0938 128.5625,178.1719 128.5625,180.8906 L128.5625,182.0156 C128.5625,184.5938 130.6719,186.4844 133.5625,186.4844 C134.7813,186.4844 135.9375,186.1875 136.6875,185.6406 C137.2656,185.2344 137.5938,184.7813 137.5938,184.3906 C137.5938,183.9375 137.2031,183.5469 136.7344,183.5469 C136.5156,183.5469 136.3125,183.625 136.125,183.8125 C135.6719,184.2969 135.6719,184.2969 135.4844,184.3906 C135.0625,184.6563 134.375,184.7813 133.6094,184.7813 C131.5625,184.7813 130.2656,183.6875 130.2656,181.9844 L130.2656,180.8906 C130.2656,179.1094 131.5156,177.7969 133.25,177.7969 C133.8281,177.7969 134.4375,177.9531 134.9063,178.2031 C135.3906,178.4844 135.5625,178.7031 135.6563,179.1094 C135.7188,179.5156 135.75,179.6406 135.8906,179.7656 C136.0313,179.9063 136.2656,180.0156 136.4844,180.0156 C136.75,180.0156 137.0156,179.875 137.1875,179.6563 C137.2969,179.5 137.3281,179.3125 137.3281,178.8906 L137.3281,177.4688 C137.3281,177.0313 137.3125,176.9063 137.2188,176.75 C137.0625,176.4844 136.7813,176.3438 136.4844,176.3438 C136.1875,176.3438 135.9844,176.4375 135.7656,176.75 L135.5938,176.6719 Z " fill="#000000"/><text fill="#000000" font-family="sans-serif" font-size="14" lengthAdjust="spacing" textLength="56" x="153.75" y="185.8467">Product</text><line style="stroke:#181818;stroke-width:0.5;" x1="85.5" x2="245.5" y1="197" y2="197"/><ellipse cx="95.5" cy="210.6484" fill="none" rx="3" ry="3" style="stroke:#038048;stroke-width:1.0;"/><text fill="#000000" font-family="sans-serif" font-size="14" lengthAdjust="spacing" textLength="136" x="104.5" y="213.9951">type: food or drink</text><line style="stroke:#181818;stroke-width:0.5;" x1="85.5" x2="245.5" y1="221.2969" y2="221.2969"/></g><!--class Ingredient--><g id="elem_Ingredient"><rect codeLine="15" fill="#F1F1F1" height="96.8906" id="Ingredient" rx="2.5" ry="2.5" style="stroke:#181818;stroke-width:0.5;" width="107" x="112" y="7"/><ellipse cx="127" cy="23" fill="#ADD1B2" rx="11" ry="11" style="stroke:#181818;stroke-width:1.0;"/><path d="M129.3438,18.6719 C128.4063,18.2344 127.8125,18.0938 126.9375,18.0938 C124.3125,18.0938 122.3125,20.1719 122.3125,22.8906 L122.3125,24.0156 C122.3125,26.5938 124.4219,28.4844 127.3125,28.4844 C128.5313,28.4844 129.6875,28.1875 130.4375,27.6406 C131.0156,27.2344 131.3438,26.7813 131.3438,26.3906 C131.3438,25.9375 130.9531,25.5469 130.4844,25.5469 C130.2656,25.5469 130.0625,25.625 129.875,25.8125 C129.4219,26.2969 129.4219,26.2969 129.2344,26.3906 C128.8125,26.6563 128.125,26.7813 127.3594,26.7813 C125.3125,26.7813 124.0156,25.6875 124.0156,23.9844 L124.0156,22.8906 C124.0156,21.1094 125.2656,19.7969 127,19.7969 C127.5781,19.7969 128.1875,19.9531 128.6563,20.2031 C129.1406,20.4844 129.3125,20.7031 129.4063,21.1094 C129.4688,21.5156 129.5,21.6406 129.6406,21.7656 C129.7813,21.9063 130.0156,22.0156 130.2344,22.0156 C130.5,22.0156 130.7656,21.875 130.9375,21.6563 C131.0469,21.5 131.0781,21.3125 131.0781,20.8906 L131.0781,19.4688 C131.0781,19.0313 131.0625,18.9063 130.9688,18.75 C130.8125,18.4844 130.5313,18.3438 130.2344,18.3438 C129.9375,18.3438 129.7344,18.4375 129.5156,18.75 L129.3438,18.6719 Z " fill="#000000"/><text fill="#000000" font-family="sans-serif" font-size="14" lengthAdjust="spacing" textLength="75" x="141" y="27.8467">Ingredient</text><line style="stroke:#181818;stroke-width:0.5;" x1="113" x2="218" y1="39" y2="39"/><ellipse cx="123" cy="52.6484" fill="none" rx="3" ry="3" style="stroke:#038048;stroke-width:1.0;"/><text fill="#000000" font-family="sans-serif" font-size="14" lengthAdjust="spacing" textLength="15" x="132" y="55.9951">ID</text><ellipse cx="123" cy="68.9453" fill="none" rx="3" ry="3" style="stroke:#038048;stroke-width:1.0;"/><text fill="#000000" font-family="sans-serif" font-size="14" lengthAdjust="spacing" textLength="40" x="132" y="72.292">name</text><ellipse cx="123" cy="85.2422" fill="none" rx="3" ry="3" style="stroke:#038048;stroke-width:1.0;"/><text fill="#000000" font-family="sans-serif" font-size="14" lengthAdjust="spacing" textLength="60" x="132" y="88.5889">quantity</text><line style="stroke:#181818;stroke-width:0.5;" x1="113" x2="218" y1="95.8906" y2="95.8906"/></g><!--link Product to TicketOrder--><g id="link_Product_TicketOrder"><path codeLine="21" d="M165.5,229.044 C165.5,250.007 165.5,278.7 165.5,305.824 " fill="none" id="Product-TicketOrder" style="stroke:#181818;stroke-width:1.0;"/><polygon fill="#000000" points="170.5,272.5664,173.4389,263.5213,167.5611,263.5213,170.5,272.5664" style="stroke:#000000;stroke-width:1.0;"/><text fill="#000000" font-family="sans-serif" font-size="13" lengthAdjust="spacing" textLength="65" x="179.5" y="272.0669">ordered in</text><text fill="#000000" font-family="sans-serif" font-size="13" lengthAdjust="spacing" textLength="10" x="154.4688" y="249.2499">+</text><text fill="#000000" font-family="sans-serif" font-size="13" lengthAdjust="spacing" textLength="7" x="158.1883" y="294.9956">*</text></g><!--link Ingredient to Product--><g id="link_Ingredient_Product"><path codeLine="22" d="M165.5,104.118 C165.5,124.166 165.5,146.936 165.5,164.793 " fill="none" id="Ingredient-Product" style="stroke:#181818;stroke-width:1.0;"/><text fill="#000000" font-family="sans-serif" font-size="13" lengthAdjust="spacing" textLength="10" x="154.7969" y="124.0935">+</text><text fill="#000000" font-family="sans-serif" font-size="13" lengthAdjust="spacing" textLength="7" x="157.8109" y="154.0264">*</text></g><!--SRC=[LL2xRiCm3Dpr5OJ71e5t3vswP6g7_e0gCGbhcLGage1HzDyZoIwQJZfGz-3H1Pipl9ERKL-JnmJV1k007WDzOLh1Ufymvpwic9I4RG0MnMsej607qkMwHfpWisG5j5g780oP5CTu5KPmDeHEZtPTa7Lg07qZgZJSFxDQBNc2My62enEPYIzZlbAC3VZgr7ckviXIOxai7vZCZp6kDtfBuelJlSssr5cav_X4FFzHJtn9wAdkihDFB_rXknUx5SjAkZR9h-zm6E1uXE5f-7UyQRj2xKCCp-R1-a6mUzm1]--></g></svg>