<?xml version="1.0" encoding="UTF-8" standalone="no"?><svg xmlns="http://www.w3.org/2000/svg" xmlns:xlink="http://www.w3.org/1999/xlink" contentStyleType="text/css" height="363px" preserveAspectRatio="none" style="width:660px;height:363px;background:#FFFFFF;" version="1.1" viewBox="0 0 660 363" width="660px" zoomAndPan="magnify"><defs/><g><!--entity Just_eat_server--><g id="elem_Just_eat_server"><polygon fill="#F1F1F1" points="441,116,451,106,590,106,590,142.2969,580,152.2969,441,152.2969,441,116" style="stroke:#181818;stroke-width:0.5;"/><line style="stroke:#181818;stroke-width:0.5;" x1="580" x2="590" y1="116" y2="106"/><line style="stroke:#181818;stroke-width:0.5;" x1="441" x2="580" y1="116" y2="116"/><line style="stroke:#181818;stroke-width:0.5;" x1="580" x2="580" y1="116" y2="152.2969"/><text fill="#000000" font-family="sans-serif" font-size="14" lengthAdjust="spacing" textLength="109" x="456" y="138.9951">Just_eat_server</text></g><!--entity SquareUp_server--><g id="elem_SquareUp_server"><polygon fill="#F1F1F1" points="245.5,116,255.5,106,405.5,106,405.5,142.2969,395.5,152.2969,245.5,152.2969,245.5,116" style="stroke:#181818;stroke-width:0.5;"/><line style="stroke:#181818;stroke-width:0.5;" x1="395.5" x2="405.5" y1="116" y2="106"/><line style="stroke:#181818;stroke-width:0.5;" x1="245.5" x2="395.5" y1="116" y2="116"/><line style="stroke:#181818;stroke-width:0.5;" x1="395.5" x2="395.5" y1="116" y2="152.2969"/><text fill="#000000" font-family="sans-serif" font-size="14" lengthAdjust="spacing" textLength="120" x="260.5" y="138.9951">SquareUp_server</text></g><!--entity Deliverer_smartphone--><g id="elem_Deliverer_smartphone"><polygon fill="#F1F1F1" points="16,222,26,212,217,212,217,248.2969,207,258.2969,16,258.2969,16,222" style="stroke:#181818;stroke-width:0.5;"/><line style="stroke:#181818;stroke-width:0.5;" x1="207" x2="217" y1="222" y2="212"/><line style="stroke:#181818;stroke-width:0.5;" x1="16" x2="207" y1="222" y2="222"/><line style="stroke:#181818;stroke-width:0.5;" x1="207" x2="207" y1="222" y2="258.2969"/><text fill="#000000" font-family="sans-serif" font-size="14" lengthAdjust="spacing" textLength="161" x="31" y="244.9951">Deliverer_smartphone</text></g><!--entity Cashier_device--><g id="elem_Cashier_device"><polygon fill="#F1F1F1" points="252,222,262,212,399,212,399,248.2969,389,258.2969,252,258.2969,252,222" style="stroke:#181818;stroke-width:0.5;"/><line style="stroke:#181818;stroke-width:0.5;" x1="389" x2="399" y1="222" y2="212"/><line style="stroke:#181818;stroke-width:0.5;" x1="252" x2="389" y1="222" y2="222"/><line style="stroke:#181818;stroke-width:0.5;" x1="389" x2="389" y1="222" y2="258.2969"/><text fill="#000000" font-family="sans-serif" font-size="14" lengthAdjust="spacing" textLength="107" x="267" y="244.9951">Cashier_device</text></g><!--entity Chef_device--><g id="elem_Chef_device"><polygon fill="#F1F1F1" points="439.5,222,449.5,212,567.5,212,567.5,248.2969,557.5,258.2969,439.5,258.2969,439.5,222" style="stroke:#181818;stroke-width:0.5;"/><line style="stroke:#181818;stroke-width:0.5;" x1="557.5" x2="567.5" y1="222" y2="212"/><line style="stroke:#181818;stroke-width:0.5;" x1="439.5" x2="557.5" y1="222" y2="222"/><line style="stroke:#181818;stroke-width:0.5;" x1="557.5" x2="557.5" y1="222" y2="258.2969"/><text fill="#000000" font-family="sans-serif" font-size="14" lengthAdjust="spacing" textLength="88" x="454.5" y="244.9951">Chef_device</text></g><!--entity JustEat_app--><g id="elem_JustEat_app"><rect fill="#F1F1F1" height="39.2969" rx="2.5" ry="2.5" style="stroke:#181818;stroke-width:0.5;" width="115" x="458" y="7"/><polygon fill="#F1F1F1" points="556,12,556,26,568,26,568,18,562,12,556,12" style="stroke:#181818;stroke-width:0.5;"/><line style="stroke:#181818;stroke-width:0.5;" x1="562" x2="562" y1="12" y2="18"/><line style="stroke:#181818;stroke-width:0.5;" x1="568" x2="562" y1="18" y2="18"/><text fill="#000000" font-family="sans-serif" font-size="14" lengthAdjust="spacing" textLength="85" x="468" y="32.9951">JustEat_app</text></g><!--entity browser--><g id="elem_browser"><rect fill="#F1F1F1" height="39.2969" rx="2.5" ry="2.5" style="stroke:#181818;stroke-width:0.5;" width="88" x="72.5" y="318"/><polygon fill="#F1F1F1" points="143.5,323,143.5,337,155.5,337,155.5,329,149.5,323,143.5,323" style="stroke:#181818;stroke-width:0.5;"/><line style="stroke:#181818;stroke-width:0.5;" x1="149.5" x2="149.5" y1="323" y2="329"/><line style="stroke:#181818;stroke-width:0.5;" x1="155.5" x2="149.5" y1="329" y2="329"/><text fill="#000000" font-family="sans-serif" font-size="14" lengthAdjust="spacing" textLength="58" x="82.5" y="343.9951">browser</text></g><!--entity SquareUpOnlineService--><g id="elem_SquareUpOnlineService"><rect fill="#F1F1F1" height="39.2969" rx="2.5" ry="2.5" style="stroke:#181818;stroke-width:0.5;" width="197" x="32" y="7"/><polygon fill="#F1F1F1" points="212,12,212,26,224,26,224,18,218,12,212,12" style="stroke:#181818;stroke-width:0.5;"/><line style="stroke:#181818;stroke-width:0.5;" x1="218" x2="218" y1="12" y2="18"/><line style="stroke:#181818;stroke-width:0.5;" x1="224" x2="218" y1="18" y2="18"/><text fill="#000000" font-family="sans-serif" font-size="14" lengthAdjust="spacing" textLength="167" x="42" y="32.9951">SquareUpOnlineService</text></g><!--entity PizzeriaWebsite--><g id="elem_PizzeriaWebsite"><rect fill="#F1F1F1" height="39.2969" rx="2.5" ry="2.5" style="stroke:#181818;stroke-width:0.5;" width="146" x="264.5" y="7"/><polygon fill="#F1F1F1" points="393.5,12,393.5,26,405.5,26,405.5,18,399.5,12,393.5,12" style="stroke:#181818;stroke-width:0.5;"/><line style="stroke:#181818;stroke-width:0.5;" x1="399.5" x2="399.5" y1="12" y2="18"/><line style="stroke:#181818;stroke-width:0.5;" x1="405.5" x2="399.5" y1="18" y2="18"/><text fill="#000000" font-family="sans-serif" font-size="14" lengthAdjust="spacing" textLength="116" x="274.5" y="32.9951">PizzeriaWebsite</text></g><!--entity KitchenDisplaySystem_App--><g id="elem_KitchenDisplaySystem_App"><rect fill="#F1F1F1" height="39.2969" rx="2.5" ry="2.5" style="stroke:#181818;stroke-width:0.5;" width="229" x="419" y="318"/><polygon fill="#F1F1F1" points="631,323,631,337,643,337,643,329,637,323,631,323" style="stroke:#181818;stroke-width:0.5;"/><line style="stroke:#181818;stroke-width:0.5;" x1="637" x2="637" y1="323" y2="329"/><line style="stroke:#181818;stroke-width:0.5;" x1="643" x2="637" y1="329" y2="329"/><text fill="#000000" font-family="sans-serif" font-size="14" lengthAdjust="spacing" textLength="199" x="429" y="343.9951">KitchenDisplaySystem_App</text></g><!--entity SquareUpPOS_App--><g id="elem_SquareUpPOS_App"><rect fill="#F1F1F1" height="39.2969" rx="2.5" ry="2.5" style="stroke:#181818;stroke-width:0.5;" width="164" x="219.5" y="318"/><polygon fill="#F1F1F1" points="366.5,323,366.5,337,378.5,337,378.5,329,372.5,323,366.5,323" style="stroke:#181818;stroke-width:0.5;"/><line style="stroke:#181818;stroke-width:0.5;" x1="372.5" x2="372.5" y1="323" y2="329"/><line style="stroke:#181818;stroke-width:0.5;" x1="378.5" x2="372.5" y1="329" y2="329"/><text fill="#000000" font-family="sans-serif" font-size="14" lengthAdjust="spacing" textLength="134" x="229.5" y="343.9951">SquareUpPOS_App</text></g><!--link SquareUp_server to Just_eat_server--><g id="link_SquareUp_server_Just_eat_server"><path d="M405.656,129 C417.384,129 429.112,129 440.841,129 " fill="none" id="SquareUp_server-Just_eat_server" style="stroke:#181818;stroke-width:1.0;"/></g><!--link JustEat_app to Just_eat_server--><g id="link_JustEat_app_Just_eat_server"><path d="M515.5,46.403 C515.5,63.234 515.5,87.876 515.5,105.672 " fill="none" id="JustEat_app-Just_eat_server" style="stroke:#181818;stroke-width:1.0;"/></g><!--link SquareUp_server to Cashier_device--><g id="link_SquareUp_server_Cashier_device"><path d="M325.5,152.056 C325.5,169.705 325.5,194.335 325.5,211.976 " fill="none" id="SquareUp_server-Cashier_device" style="stroke:#181818;stroke-width:1.0;"/></g><!--link SquareUp_server to Deliverer_smartphone--><g id="link_SquareUp_server_Deliverer_smartphone"><path d="M281.176,152.056 C245.708,169.705 196.211,194.335 160.76,211.976 " fill="none" id="SquareUp_server-Deliverer_smartphone" style="stroke:#181818;stroke-width:1.0;"/></g><!--link SquareUp_server to Chef_device--><g id="link_SquareUp_server_Chef_device"><path d="M363.249,152.056 C393.456,169.705 435.612,194.335 465.805,211.976 " fill="none" id="SquareUp_server-Chef_device" style="stroke:#181818;stroke-width:1.0;"/></g><!--link PizzeriaWebsite to SquareUp_server--><g id="link_PizzeriaWebsite_SquareUp_server"><path d="M335.243,46.403 C333.233,63.234 330.291,87.876 328.166,105.672 " fill="none" id="PizzeriaWebsite-SquareUp_server" style="stroke:#181818;stroke-width:1.0;"/></g><!--link SquareUpOnlineService to SquareUp_server--><g id="link_SquareUpOnlineService_SquareUp_server"><path d="M166.721,46.168 C199.543,63.084 247.946,88.03 282.674,105.928 " fill="none" id="SquareUpOnlineService-SquareUp_server" style="stroke:#181818;stroke-width:1.0;"/></g><!--link Deliverer_smartphone to browser--><g id="link_Deliverer_smartphone_browser"><path d="M116.5,258.3042 C116.5,276.231 116.5,301.1155 116.5,317.9606 " fill="none" id="Deliverer_smartphone-browser" style="stroke:#181818;stroke-width:1.0;"/></g><!--link Chef_device to KitchenDisplaySystem_App--><g id="link_Chef_device_KitchenDisplaySystem_App"><path d="M510.158,258.3042 C515.509,276.231 522.937,301.1155 527.966,317.9606 " fill="none" id="Chef_device-KitchenDisplaySystem_App" style="stroke:#181818;stroke-width:1.0;"/></g><!--link Cashier_device to SquareUpPOS_App--><g id="link_Cashier_device_SquareUpPOS_App"><path d="M320.174,258.3042 C315.893,276.231 309.95,301.1155 305.927,317.9606 " fill="none" id="Cashier_device-SquareUpPOS_App" style="stroke:#181818;stroke-width:1.0;"/></g><!--SRC=[TP513eCW44Ntde8BS8YcxQPTQ4AQBWdg62THf80sUlgY3HMLBdd_P_xCHtOba5jlB0TXkG4zW4xa3Dch5neUQWClqA1xWEQc5TggkfFmLSx2rEXu2GCMdjLGUP0uErQYi4lQrOK9fLQOw-xjWbRWurFPe0JcTfYd_EGCfmaqYYVa1cqWtD4MDSWB6jM8aOt6GijFOPIVdALi4PBTfOHgUgWaM9hGetmOGVU5H1pHCcEJWXeFSa_tNH0ITSKBZUr0vb3_8K7uml_skxrtyUwQ_W00]--></g></svg>